<svg width="18" height="18" viewBox="0 0 18 18" fill="none" xmlns="http://www.w3.org/2000/svg">
<path d="M12.8155 11.3297L12.5633 11.6753L12.8657 11.9779L17.3167 16.4316L17.3169 16.4317C17.561 16.6758 17.561 17.0728 17.3169 17.3169C17.0727 17.561 16.6756 17.561 16.4314 17.317C16.4314 17.317 16.4314 17.317 16.4313 17.317C16.4313 17.3169 16.4313 17.3169 16.4313 17.3169L11.9804 12.8634L11.6773 12.56L11.3313 12.8134C10.2051 13.6383 8.81734 14.1229 7.31286 14.1229C3.54926 14.1229 0.5 11.0741 0.5 7.31143C0.5 3.5488 3.54926 0.5 7.31286 0.5C11.0765 0.5 14.1257 3.5488 14.1257 7.31143C14.1257 8.81484 13.638 10.2028 12.8155 11.3297ZM7.31286 12.8732C8.04335 12.8732 8.7667 12.7293 9.4416 12.4498C10.1165 12.1703 10.7297 11.7607 11.2463 11.2442C11.7628 10.7278 12.1726 10.1146 12.4522 9.43985C12.7317 8.76506 12.8756 8.04182 12.8756 7.31143C12.8756 6.58104 12.7317 5.8578 12.4522 5.183C12.1726 4.50821 11.7628 3.89509 11.2463 3.37864C10.7297 2.86219 10.1165 2.45252 9.4416 2.17302C8.7667 1.89352 8.04335 1.74967 7.31286 1.74967C6.58236 1.74967 5.85901 1.89352 5.18412 2.17302C4.50922 2.45252 3.89599 2.86219 3.37944 3.37864C2.86288 3.89509 2.45312 4.50821 2.17356 5.183C1.894 5.8578 1.75011 6.58104 1.75011 7.31143C1.75011 8.04182 1.894 8.76506 2.17356 9.43985C2.45312 10.1146 2.86288 10.7278 3.37944 11.2442C3.89599 11.7607 4.50922 12.1703 5.18412 12.4498C5.85901 12.7293 6.58236 12.8732 7.31286 12.8732Z" fill="black" stroke="black"/>
</svg>
